<?xml version="1.0" encoding="UTF-8"?><svg xmlns="http://www.w3.org/2000/svg" viewBox="0 0 472.27 435"><defs><style>.d{opacity:.5;}.e{fill:#191919;}.e,.f{stroke:#a7813b;stroke-linecap:round;stroke-linejoin:round;stroke-width:19px;}.f{fill:none;}.g{fill:#a7813b;}</style></defs><g id="a"/><g id="b"><g id="c"><g><g><ellipse class="f" cx="235.68" cy="134.18" rx="80.73" ry="91.68"/><path class="f" d="M436.84,379.14c3.12,12.04,5.95,24.83,8.6,38.36"/><path class="f" d="M27.43,417.5c28.67-132.8,55.84-191.65,208.25-191.65,86.91,0,136.79,23.15,168.26,71.96"/><polyline class="f" points="335.29 348.56 335.29 421.75 133.08 421.75 133.08 348.56"/><polyline class="f" points="108.18 422.5 90.65 422.5 53.36 422.5 34.99 422.5"/><polyline class="f" points="443.19 422.5 425.66 422.5 388.37 422.5 370 422.5"/><line class="f" x1="108.18" y1="421.75" x2="133.08" y2="348.56"/><line class="f" x1="360.19" y1="422.5" x2="335.29" y2="348.56"/><polygon class="e" points="291.3 60.95 235.64 84.77 235.38 84.92 235.13 84.77 179.47 60.95 179.38 12.72 235.38 37.16 291.38 12.72 291.3 60.95"/><circle class="g" cx="422.05" cy="338.33" r="10.46"/></g><g class="d"><ellipse class="f" cx="235.32" cy="132.8" rx="87.54" ry="93.07"/><path class="f" d="M453.44,381.48c3.38,12.22,6.46,25.2,9.33,38.95"/><path class="f" d="M9.5,420.42c31.09-134.81,60.55-194.56,225.82-194.56,94.25,0,148.33,23.5,182.45,73.05"/><polyline class="f" points="343.34 350.43 343.34 424.73 124.06 424.73 124.06 350.43"/><polyline class="f" points="97.06 425.5 78.05 425.5 37.62 425.5 17.7 425.5"/><polyline class="f" points="460.34 425.5 441.32 425.5 400.89 425.5 380.97 425.5"/><line class="f" x1="97.06" y1="424.73" x2="124.06" y2="350.43"/><line class="f" x1="370.34" y1="425.5" x2="343.34" y2="350.43"/><polygon class="e" points="295.63 58.46 235.27 82.65 235 82.8 234.72 82.65 174.37 58.46 174.27 9.5 235 34.31 295.72 9.5 295.63 58.46"/><ellipse class="g" cx="437.41" cy="340.06" rx="11.35" ry="10.62"/></g></g></g></g></svg>