<?xml version="1.0" encoding="UTF-8"?><svg xmlns="http://www.w3.org/2000/svg" viewBox="0 0 610.08 411.73"><defs><style>.d{opacity:.5;}.e{fill:none;stroke:#a7813b;stroke-linecap:round;stroke-linejoin:round;stroke-width:19px;}.f{fill:#a7813b;}</style></defs><g id="a"/><g id="b"><g id="c"><g><g><path class="e" d="M304.73,52.12h0c145.43,0,263.5,118.07,263.5,263.5v4.5c0,6.62-5.38,12-12,12H53.23c-6.62,0-12-5.38-12-12v-4.5c0-145.43,118.07-263.5,263.5-263.5Z"/><path class="e" d="M130.73,168.11c22-32,85-75,134-81"/><circle class="f" cx="109.23" cy="196.61" r="9"/><line class="e" x1="294.73" y1="20.61" x2="314.73" y2="20.61"/><path class="e" d="M556.33,391.11H55.91c-5.65,0-10.79-3.15-13.21-8.09l-15.04-30.68c-4.61-9.4,2.47-20.23,13.21-20.23H569.22c10.38,0,17.46,10.18,13.55,19.5l-12.89,30.68c-2.24,5.34-7.6,8.83-13.55,8.83Z"/></g><g class="d"><path class="e" d="M288.9,42.89h31.62c145.43,0,263.5,118.07,263.5,263.5v21.3c0,6.62-5.38,12-12,12H37.4c-6.62,0-12-5.38-12-12v-21.3C25.4,160.96,143.47,42.89,288.9,42.89Z"/><path class="e" d="M120.27,165.85c23.32-33.92,90.1-79.5,142.04-85.86"/><circle class="e" cx="97.48" cy="196.06" r="9.54"/><line class="e" x1="294.11" y1="9.5" x2="315.31" y2="9.5"/><path class="e" d="M571.4,402.23H40.96c-5.99,0-11.44-3.34-14.01-8.58l-15.94-32.52c-4.88-9.96,2.62-21.45,14.01-21.45H585.07c11.01,0,18.51,10.8,14.36,20.67l-13.66,32.52c-2.38,5.66-8.05,9.35-14.36,9.35Z"/></g></g></g></g></svg>