<?xml version="1.0" encoding="UTF-8"?><svg xmlns="http://www.w3.org/2000/svg" xmlns:xlink="http://www.w3.org/1999/xlink" viewBox="0 0 287 287"><defs><style>.f{isolation:isolate;opacity:.54;stroke:#ddb03e;stroke-linecap:round;}.f,.g{stroke-miterlimit:10;}.f,.g,.h{fill:none;}.g{opacity:.3;stroke:#a7813b;stroke-width:2px;}.i{clip-path:url(#d);}.j{fill:url(#e);opacity:.2;}</style><clipPath id="d"><rect class="h" x="2" y="2" width="283" height="283"/></clipPath><pattern id="e" x="0" y="0" width="281.78" height="281.93" patternTransform="translate(2 -1407)" patternUnits="userSpaceOnUse" viewBox="0 0 281.78 281.93"><g><rect class="h" x="0" width="281.78" height="281.93"/><g><path class="f" d="M172.83,423.1l-31.51-31.51-31.51,31.51,31.51,31.51,31.51-31.51Zm52.54,140.9l-84.15-84.15-84.15,84.15m-18.29,0l96.59-96.6-38.36-38.36L.74,525.31m281.61,0l-96.28-96.27-38.36,38.36,96.59,96.6m38.04-225.27l-84.15,84.15,84.15,84.15M.74,507.02l84.15-84.15L.74,338.73m38.69-56.33l95.95,95.95-38.36,38.36L.74,320.43m223.98-38.04l-83.5,83.5-83.5-83.5m224.63,38.04l-96.28,96.27-38.36-38.36,95.95-95.95"/><polyline class="f" points="203.55 282.39 141.23 344.72 78.9 282.39"/><polyline class="f" points="224.73 282.39 141.23 365.89 57.72 282.39"/><polyline class="f" points="184.18 282.39 141.23 325.34 98.27 282.39"/><polyline class="f" points="203.55 282.39 141.23 344.72 78.9 282.39"/><polyline class="f" points="165.45 282.39 141.23 306.61 117 282.39"/><polyline class="f" points="184.18 282.39 141.23 325.34 98.27 282.39"/><polyline class="f" points="146.72 282.39 141.23 287.88 135.74 282.39"/><polyline class="f" points="117 282.39 141.23 306.61 165.45 282.39"/><polyline class="f" points="146.72 282.39 141.23 287.88 135.74 282.39"/><polyline class="f" points="39.43 282.39 135.38 378.34 97.02 416.7 .74 320.43"/><polyline class="f" points="20.25 282.39 116.2 378.34 96.56 397.98 .74 302.16"/><polyline class="f" points=".74 302.16 96.56 397.98 116.2 378.34 20.25 282.39"/><line class="f" x1="1.07" y1="282.39" x2="97.25" y2="378.57"/><polyline class="f" points="282.35 302.16 186.54 397.98 166.89 378.34 262.85 282.39"/><polyline class="f" points="282.35 320.43 186.08 416.7 147.72 378.34 243.66 282.39"/><polyline class="f" points="262.85 282.39 166.89 378.34 186.54 397.98 282.35 302.16"/><polyline class="f" points="282.35 282.39 282.03 282.39 185.85 378.57"/></g><g><path class="f" d="M-108.95,423.1l-31.51-31.51-31.51,31.51,31.51,31.51,31.51-31.51Zm52.54,140.9l-84.15-84.15-84.15,84.15m-18.29,0l96.59-96.6-38.36-38.36-96.28,96.27m281.61,0l-96.28-96.27-38.36,38.36,96.59,96.6M.57,338.73l-84.15,84.15L.57,507.02m-281.61,0l84.15-84.15-84.15-84.15m38.69-56.33l95.95,95.95-38.36,38.36-96.28-96.27m223.98-38.04l-83.5,83.5-83.5-83.5M.57,320.43l-96.28,96.27-38.36-38.36,95.95-95.95"/><polyline class="f" points=".57 302.16 -95.25 397.98 -114.89 378.34 -18.93 282.39"/><polyline class="f" points=".57 320.43 -95.7 416.7 -134.06 378.34 -38.12 282.39"/><polyline class="f" points="-18.93 282.39 -114.89 378.34 -95.25 397.98 .57 302.16"/><polyline class="f" points=".57 282.39 .25 282.39 -95.93 378.57"/></g><g><path class="f" d="M172.83,141.17l-31.51-31.51-31.51,31.51,31.51,31.51,31.51-31.51Zm52.54,140.9l-84.15-84.15-84.15,84.15m-18.29,0l96.59-96.6-38.36-38.36L.74,243.38m281.61,0l-96.28-96.27-38.36,38.36,96.59,96.6m38.04-225.27l-84.15,84.15,84.15,84.15M.74,225.09l84.15-84.15L.74,56.8M39.43,.46l95.95,95.95-38.36,38.36L.74,38.51M224.73,.46l-83.5,83.5L57.72,.46m224.63,38.04l-96.28,96.27-38.36-38.36L243.66,.46"/><polyline class="f" points="282.35 77.97 219.38 140.95 282.35 203.92"/><polyline class="f" points="282.35 56.8 198.21 140.95 282.35 225.09"/><polyline class="f" points="282.35 77.97 219.38 140.95 282.35 203.92"/><polyline class="f" points="282.35 97.35 238.76 140.95 282.35 184.54"/><polyline class="f" points="282.35 97.35 238.76 140.95 282.35 184.54"/><polyline class="f" points="282.35 116.08 257.49 140.95 282.35 165.81"/><polyline class="f" points="282.35 116.08 257.49 140.95 282.35 165.81"/><polyline class="f" points="282.35 134.81 276.22 140.95 282.35 147.08"/><polyline class="f" points="282.35 134.81 276.22 140.95 282.35 147.08"/><polyline class="f" points=".74 203.92 63.72 140.95 .74 77.97"/><polyline class="f" points=".74 225.09 84.89 140.95 .74 56.8"/><polyline class="f" points=".74 203.92 63.72 140.95 .74 77.97"/><polyline class="f" points=".74 184.54 44.34 140.95 .74 97.35"/><polyline class="f" points=".74 165.81 25.61 140.95 .74 116.08"/><polyline class="f" points=".74 184.54 44.34 140.95 .74 97.35"/><polyline class="f" points=".74 147.08 6.88 140.95 .74 134.81"/><polyline class="f" points=".74 165.81 25.61 140.95 .74 116.08"/><polyline class="f" points=".74 147.08 6.88 140.95 .74 134.81"/><polyline class="f" points="203.55 .46 141.23 62.79 78.9 .46"/><polyline class="f" points="224.73 .46 141.23 83.96 57.72 .46"/><polyline class="f" points="184.18 .46 141.23 43.42 98.27 .46"/><polyline class="f" points="203.55 .46 141.23 62.79 78.9 .46"/><polyline class="f" points="165.45 .46 141.23 24.68 117 .46"/><polyline class="f" points="184.18 .46 141.23 43.42 98.27 .46"/><polyline class="f" points="146.72 .46 141.23 5.95 135.74 .46"/><polyline class="f" points="117 .46 141.23 24.68 165.45 .46"/><polyline class="f" points="146.72 .46 141.23 5.95 135.74 .46"/><polyline class="f" points="204.2 282.07 141.23 219.1 78.25 282.07"/><polyline class="f" points="225.37 282.07 141.23 197.93 57.08 282.07"/><polyline class="f" points="204.2 282.07 141.23 219.1 78.25 282.07"/><polyline class="f" points="184.82 282.07 141.23 238.48 97.63 282.07"/><polyline class="f" points="166.09 282.07 141.23 257.21 116.36 282.07"/><polyline class="f" points="184.82 282.07 141.23 238.48 97.63 282.07"/><polyline class="f" points="147.36 282.07 141.23 275.94 135.09 282.07"/><polyline class="f" points="166.09 282.07 141.23 257.21 116.36 282.07"/><polyline class="f" points="147.36 282.07 141.23 275.94 135.09 282.07"/><polyline class="f" points="282.35 262.57 186.08 166.29 166.44 185.93 262.58 282.07"/><polyline class="f" points="282.35 243.38 186.08 147.11 147.72 185.47 244.31 282.07"/><line class="f" x1="185.85" y1="185.25" x2="282.35" y2="281.75"/><polyline class="f" points="282.35 262.57 186.08 166.29 166.44 185.93 262.58 282.07"/><path class="f" d="M141.32,109.66l31.51,31.51-31.51,31.51-31.51-31.51,31.51-31.51Zm12.33,31.51l-12.33-12.33-12.33,12.33,12.33,12.33,12.33-12.33Z"/><polygon class="f" points="128.99 141.17 141.32 153.51 153.65 141.17 141.32 128.84 128.99 141.17"/><polyline class="f" points="39.43 .46 135.38 96.42 97.02 134.78 .74 38.51"/><polyline class="f" points="20.25 .46 116.2 96.42 96.56 116.05 .74 20.23"/><polyline class="f" points=".74 20.23 96.56 116.05 116.2 96.42 20.25 .46"/><path class="f" d="M1.07,.46"/><line class="f" x1="1.07" y1=".46" x2="97.25" y2="96.64"/><polyline class="f" points="282.35 20.23 186.54 116.05 166.89 96.42 262.85 .46"/><polyline class="f" points="282.35 38.51 186.08 134.78 147.72 96.42 243.66 .46"/><polyline class="f" points="262.85 .46 166.89 96.42 186.54 116.05 282.35 20.23"/><polyline class="f" points="282.35 .46 282.03 .46 185.85 96.64"/><polyline class="f" points="38.79 282.07 135.38 185.47 97.02 147.11 .74 243.38"/><polyline class="f" points="20.51 282.07 116.66 185.93 97.02 166.29 .74 262.57"/><polyline class="f" points="20.51 282.07 116.66 185.93 97.02 166.29 .74 262.57"/><line class="f" x1=".74" y1="281.75" x2="97.25" y2="185.25"/></g><g><path class="f" d="M-108.95,141.17l-31.51-31.51-31.51,31.51,31.51,31.51,31.51-31.51Zm52.54,140.9l-84.15-84.15-84.15,84.15m-18.29,0l96.59-96.6-38.36-38.36-96.28,96.27M.57,243.38l-96.28-96.27-38.36,38.36,96.59,96.6M.57,56.8l-84.15,84.15L.57,225.09m-281.61,0l84.15-84.15-84.15-84.15M-242.35,.46l95.95,95.95-38.36,38.36-96.28-96.27M-57.05,.46l-83.5,83.5L-224.06,.46M.57,38.51l-96.28,96.27-38.36-38.36L-38.12,.46"/><polyline class="f" points=".57 77.97 -62.4 140.95 .57 203.92"/><polyline class="f" points=".57 56.8 -83.57 140.95 .57 225.09"/><polyline class="f" points=".57 77.97 -62.4 140.95 .57 203.92"/><polyline class="f" points=".57 97.35 -43.02 140.95 .57 184.54"/><polyline class="f" points=".57 97.35 -43.02 140.95 .57 184.54"/><polyline class="f" points=".57 116.08 -24.29 140.95 .57 165.81"/><polyline class="f" points=".57 116.08 -24.29 140.95 .57 165.81"/><polyline class="f" points=".57 134.81 -5.56 140.95 .57 147.08"/><polyline class="f" points=".57 134.81 -5.56 140.95 .57 147.08"/><polyline class="f" points=".57 262.57 -95.7 166.29 -115.34 185.93 -19.2 282.07"/><polyline class="f" points=".57 243.38 -95.7 147.11 -134.06 185.47 -37.47 282.07"/><line class="f" x1="-95.93" y1="185.25" x2=".57" y2="281.75"/><polyline class="f" points=".57 262.57 -95.7 166.29 -115.34 185.93 -19.2 282.07"/><polyline class="f" points=".57 20.23 -95.25 116.05 -114.89 96.42 -18.93 .46"/><polyline class="f" points=".57 38.51 -95.7 134.78 -134.06 96.42 -38.12 .46"/><polyline class="f" points="-18.93 .46 -114.89 96.42 -95.25 116.05 .57 20.23"/><polyline class="f" points=".57 .46 .25 .46 -95.93 96.64"/></g><g><path class="f" d="M172.83-140.75l-31.51-31.51-31.51,31.51,31.51,31.51,31.51-31.51ZM225.37,.15l-84.15-84.15L57.08,.15M38.79,.15l96.59-96.6-38.36-38.36L.74-38.54m281.61,0l-96.28-96.27-38.36,38.36L244.31,.15m38.04-225.27l-84.15,84.15,84.15,84.15M.74-56.83l84.15-84.15L.74-225.13m38.69-56.33l95.95,95.95-38.36,38.36L.74-243.42m223.98-38.04l-83.5,83.5-83.5-83.5m224.63,38.04l-96.28,96.27-38.36-38.36,95.95-95.95"/><polyline class="f" points="204.2 .15 141.23 -62.83 78.25 .15"/><polyline class="f" points="225.37 .15 141.23 -84 57.08 .15"/><polyline class="f" points="204.2 .15 141.23 -62.83 78.25 .15"/><polyline class="f" points="184.82 .15 141.23 -43.45 97.63 .15"/><polyline class="f" points="166.09 .15 141.23 -24.72 116.36 .15"/><polyline class="f" points="184.82 .15 141.23 -43.45 97.63 .15"/><polyline class="f" points="147.36 .15 141.23 -5.99 135.09 .15"/><polyline class="f" points="166.09 .15 141.23 -24.72 116.36 .15"/><polyline class="f" points="147.36 .15 141.23 -5.99 135.09 .15"/><polyline class="f" points="282.35 -19.36 186.08 -115.64 166.44 -95.99 262.58 .15"/><polyline class="f" points="282.35 -38.54 186.08 -134.81 147.72 -96.45 244.31 .15"/><line class="f" x1="185.85" y1="-96.68" x2="282.35" y2="-.18"/><polyline class="f" points="282.35 -19.36 186.08 -115.64 166.44 -95.99 262.58 .15"/><polyline class="f" points="38.79 .15 135.38 -96.45 97.02 -134.81 .74 -38.54"/><polyline class="f" points="20.51 .15 116.66 -95.99 97.02 -115.64 .74 -19.36"/><polyline class="f" points="20.51 .15 116.66 -95.99 97.02 -115.64 .74 -19.36"/><line class="f" x1=".74" y1="-.18" x2="97.25" y2="-96.68"/></g><g><path class="f" d="M-108.95-140.75l-31.51-31.51-31.51,31.51,31.51,31.51,31.51-31.51ZM-56.41,.15l-84.15-84.15L-224.7,.15m-18.29,0l96.59-96.6-38.36-38.36-96.28,96.27M.57-38.54l-96.28-96.27-38.36,38.36L-37.47,.15M.57-225.13l-84.15,84.15L.57-56.83m-281.61,0l84.15-84.15-84.15-84.15m38.69-56.33l95.95,95.95-38.36,38.36-96.28-96.27m223.98-38.04l-83.5,83.5-83.5-83.5M.57-243.42l-96.28,96.27-38.36-38.36,95.95-95.95"/><polyline class="f" points=".57 -19.36 -95.7 -115.64 -115.34 -95.99 -19.2 .15"/><polyline class="f" points=".57 -38.54 -95.7 -134.81 -134.06 -96.45 -37.47 .15"/><line class="f" x1="-95.93" y1="-96.68" x2=".57" y2="-.18"/><polyline class="f" points=".57 -19.36 -95.7 -115.64 -115.34 -95.99 -19.2 .15"/></g></g></pattern></defs><g id="a"/><g id="b"><g id="c"><g class="i"><rect class="j" x="2" y="2" width="283" height="283"/></g><rect class="g" x="1" y="1" width="285" height="285"/></g></g></svg>