<?xml version="1.0" encoding="UTF-8"?><svg xmlns="http://www.w3.org/2000/svg" viewBox="0 0 520.87 488.37"><defs><style>.d{opacity:.5;}.e{fill:#191919;}.e,.f{stroke:#a7813b;stroke-linecap:round;stroke-linejoin:round;stroke-width:19px;}.f{fill:none;}.g{fill:#a7813b;}</style></defs><g id="a"/><g id="b"><g id="c"><g><g><circle class="f" cx="261.37" cy="243.5" r="192"/><ellipse class="f" cx="261.37" cy="243.5" rx="76.8" ry="192"/><line class="f" x1="82.88" y1="172.62" x2="439.87" y2="172.62"/><line class="f" x1="82.88" y1="312.88" x2="439.87" y2="312.88"/><circle class="e" cx="190.5" cy="171.87" r="29.62"/><circle class="e" cx="383.25" cy="391.62" r="29.62"/><path class="f" d="M140.66,47.24c35.41-22.02,77.2-34.74,121.97-34.74,127.72,0,231.25,103.53,231.25,231.25s-103.53,231.25-231.25,231.25S31.37,371.47,31.37,243.75c0-46.5,13.73-89.8,37.35-126.06"/><circle class="g" cx="99.91" cy="78.95" r="10.46"/></g><g class="d"><ellipse class="f" cx="259.08" cy="243.93" rx="208.35" ry="194.85"/><ellipse class="f" cx="259.08" cy="243.93" rx="83.34" ry="194.85"/><line class="f" x1="65.39" y1="172.01" x2="452.77" y2="172.01"/><line class="f" x1="65.39" y1="314.34" x2="452.77" y2="314.34"/><ellipse class="e" cx="182.17" cy="171.24" rx="32.15" ry="30.07"/><ellipse class="e" cx="391.33" cy="394.26" rx="32.15" ry="30.07"/><path class="f" d="M128.09,44.76C166.51,22.41,211.86,9.5,260.44,9.5c138.59,0,250.94,105.07,250.94,234.69s-112.35,234.69-250.94,234.69S9.5,373.8,9.5,244.19c0-47.19,14.9-91.14,40.53-127.93"/><ellipse class="g" cx="83.87" cy="76.93" rx="11.35" ry="10.62"/></g></g></g></g></svg>